<?xml version="1.0" encoding="UTF-8"?>
<!DOCTYPE svg PUBLIC "-//W3C//DTD SVG 1.1//EN" "http://www.w3.org/Graphics/SVG/1.1/DTD/svg11.dtd">
<!-- Creator: CorelDRAW X5 -->
<svg xmlns="http://www.w3.org/2000/svg" xml:space="preserve" width="297mm" height="210mm" style="shape-rendering:geometricPrecision; text-rendering:geometricPrecision; image-rendering:optimizeQuality; fill-rule:evenodd; clip-rule:evenodd"
viewBox="0 0 29700 21000"
 xmlns:xlink="http://www.w3.org/1999/xlink">
 <defs>
  <style type="text/css">
   <![CDATA[
    .fil4 {fill:#464090}
    .fil3 {fill:#E42425}
    .fil0 {fill:#C5C6C6;fill-rule:nonzero}
    .fil1 {fill:#464090;fill-rule:nonzero}
    .fil2 {fill:#E42425;fill-rule:nonzero}
   ]]>
  </style>
 </defs>
 <g id="Warstwa_x0020_1">
  <metadata id="CorelCorpID_0Corel-Layer"/>
  <g id="_309639168">
   <path class="fil0" d="M18296 12244c-34,-116 -107,-205 -218,-268 -111,-63 -252,-94 -423,-94 -231,0 -412,54 -545,162 -132,108 -199,256 -199,445 0,184 64,331 193,440 128,110 301,164 516,164 178,0 329,-39 454,-116 125,-77 205,-182 241,-313l187 0c-41,174 -139,313 -296,414 -157,102 -351,153 -581,153 -270,0 -487,-67 -649,-202 -162,-135 -243,-315 -243,-540 0,-231 82,-413 246,-545 165,-132 390,-198 678,-198 227,0 413,44 557,133 145,89 231,211 260,367l-178 0zm578 347l996 0c-9,-103 -59,-186 -150,-248 -91,-62 -205,-94 -344,-94 -141,0 -257,31 -348,94 -91,62 -142,145 -153,248zm1140 272c-34,113 -108,202 -223,268 -115,66 -253,99 -415,99 -207,0 -374,-51 -500,-153 -126,-102 -190,-236 -190,-403 0,-166 63,-299 190,-402 127,-102 294,-153 499,-153 207,0 373,50 499,151 126,100 188,235 188,402l0 32 -1194 0c10,125 58,222 147,291 88,68 208,103 360,103 110,0 205,-21 283,-62 78,-41 133,-99 165,-173l190 0zm320 330l0 -1036 163 0 0 191c63,-70 140,-123 231,-159 91,-36 194,-54 309,-54 171,0 296,31 377,94 80,63 121,160 121,293l0 670 -168 0 0 -582c0,-132 -27,-224 -81,-275 -54,-52 -147,-77 -277,-77 -147,0 -269,32 -364,96 -95,64 -143,147 -143,248l0 590 -168 0zm1798 -276c0,77 11,125 32,142 21,18 62,26 121,26 19,0 39,-1 61,-3 22,-2 47,-6 76,-12l0 118c-40,8 -77,13 -111,17 -34,4 -67,6 -98,6 -90,0 -155,-21 -193,-62 -39,-41 -58,-112 -58,-214l0 -666 -219 0 0 -113 219 0 0 -304 170 0 0 304 293 0 0 113 -293 0 0 647zm658 276l-170 0 0 -1036 170 0 0 172c37,-66 90,-117 159,-154 69,-37 145,-55 229,-55 28,0 56,2 84,7 28,5 57,12 86,22l0 132c-28,-7 -55,-12 -80,-15 -25,-3 -48,-5 -71,-5 -101,0 -185,22 -252,66 -67,43 -119,109 -155,197l0 670zm826 -519c0,129 47,232 140,308 93,77 219,115 377,115 157,0 282,-38 376,-115 94,-77 140,-179 140,-308 0,-129 -47,-231 -140,-307 -93,-77 -219,-115 -376,-115 -158,0 -283,38 -377,115 -94,76 -140,179 -140,307zm-173 0c0,-166 63,-299 191,-402 127,-102 293,-153 499,-153 206,0 372,51 500,154 128,102 192,236 192,401 0,166 -64,300 -192,402 -127,103 -294,154 -500,154 -206,0 -373,-51 -499,-154 -127,-102 -191,-236 -191,-402z"/>
   <g>
    <path class="fil1" d="M9787 10528l507 0c287,0 499,-68 633,-204 134,-136 201,-349 201,-640 0,-292 -67,-506 -201,-641 -134,-135 -346,-203 -633,-203l-507 0 0 1688zm-935 612l0 -2919 1553 0c538,0 951,126 1238,377 287,252 431,614 431,1085 0,488 -148,852 -446,1094 -297,241 -745,363 -1344,363l-1432 0zm4462 -1306l1000 -2c-3,-139 -49,-247 -137,-325 -88,-78 -208,-117 -362,-117 -145,0 -260,39 -347,115 -87,76 -138,186 -154,329zm956 628l844 0c-78,237 -234,419 -465,549 -232,129 -518,194 -860,194 -416,0 -746,-101 -988,-304 -242,-203 -363,-479 -363,-829 0,-356 122,-639 366,-848 244,-208 571,-312 985,-312 426,0 761,106 1005,317 244,211 366,503 366,875 0,35 0,61 -1,78 -1,18 -3,33 -4,47l-1815 0c0,152 40,268 122,348 82,80 201,120 360,120 116,0 213,-20 289,-60 76,-40 129,-99 160,-177zm3817 -1050l0 -426 361 0 0 -610 879 0 0 610 449 0 0 426 -449 0 0 933c0,143 23,237 69,283 46,47 132,70 260,70 28,0 50,0 65,-1 16,-1 31,-2 46,-3l0 451c-92,14 -182,26 -270,33 -88,8 -174,12 -256,12 -304,0 -512,-60 -624,-179 -112,-120 -168,-375 -168,-764l0 -834 -361 0zm2093 1728l0 -2154 844 0 0 377c94,-148 211,-256 351,-324 140,-68 318,-103 533,-106l0 698c-38,-4 -75,-7 -112,-9 -37,-2 -72,-3 -105,-3 -135,0 -246,16 -335,49 -88,32 -158,82 -212,150 -33,45 -56,110 -70,193 -14,84 -21,219 -21,407l0 723 -874 0zm3659 -1015c-67,34 -186,66 -356,95 -83,14 -145,24 -188,34 -105,24 -180,54 -223,91 -44,37 -66,87 -66,149 0,76 29,139 89,185 59,47 137,70 234,70 150,0 272,-35 367,-104 95,-69 142,-160 142,-273l0 -248zm968 1015l-896 0c-10,-35 -19,-70 -26,-107 -8,-37 -14,-75 -21,-115 -123,99 -254,172 -394,220 -139,48 -292,72 -458,72 -258,0 -463,-58 -614,-172 -151,-114 -226,-269 -226,-463 0,-179 59,-323 176,-435 118,-112 296,-190 535,-235 131,-24 298,-49 501,-77 303,-40 454,-98 454,-175l0 -51c0,-62 -29,-110 -88,-141 -58,-32 -145,-49 -260,-49 -126,0 -224,20 -298,62 -73,41 -120,101 -137,180l-810 0c43,-243 169,-424 377,-542 208,-119 504,-179 887,-179 239,0 440,23 603,70 164,46 292,116 384,210 64,68 110,147 136,241 26,93 40,243 40,448l0 817c0,98 11,175 34,231 22,56 55,93 99,110l0 81z"/>
    <polygon class="fil2" points="15239,11141 16185,10017 15276,8986 16313,8986 16681,9502 17061,8986 18086,8986 17177,10017 18128,11141 17101,11141 16676,10548 16261,11141 "/>
    <polygon class="fil3" points="5975,9172 4877,9172 4877,10171 5975,10171 "/>
    <polygon class="fil4" points="7229,8619 4877,8619 4877,9172 6615,9172 6615,10171 4877,10171 4877,10680 7229,10680 "/>
    <polygon class="fil4" points="8235,7769 4877,7769 4877,8253 7614,8253 7614,11046 4877,11046 4877,11542 8235,11542 "/>
   </g>
  </g>
 </g>
</svg>
