<?xml version="1.0" encoding="utf-8"?>
<!-- Generator: Adobe Illustrator 21.0.2, SVG Export Plug-In . SVG Version: 6.00 Build 0)  -->
<svg version="1.1" id="Warstwa_1" xmlns="http://www.w3.org/2000/svg" xmlns:xlink="http://www.w3.org/1999/xlink" x="0px" y="0px"
	 viewBox="0 0 211.8 391.8" style="enable-background:new 0 0 211.8 391.8;" xml:space="preserve">
<style type="text/css">
	.st0{fill:#5224AA;}
</style>
<g>
	<polygon class="st0" points="35.2,82.1 105.9,152.8 123.6,135.1 105.9,117.5 70.5,82.1 105.9,46.7 141.3,82.1 158.9,64.4 
		105.9,11.4 	"/>
	<polygon class="st0" points="88.2,241.2 105.9,258.9 141.3,294.2 105.9,329.6 70.5,294.2 52.9,311.9 105.9,364.9 176.6,294.2 
		105.9,223.5 	"/>
	<g>
		<polygon class="st0" points="70.5,188.2 88.2,170.5 70.5,152.8 35.2,188.2 105.9,258.9 123.6,241.2 105.9,223.5 		"/>
		<polygon class="st0" points="88.2,135.1 105.9,152.8 141.3,188.2 123.6,205.8 141.3,223.5 176.6,188.2 105.9,117.5 		"/>
	</g>
</g>
</svg>
