<?xml version="1.0" encoding="utf-8"?>
<!-- Generator: Adobe Illustrator 21.0.2, SVG Export Plug-In . SVG Version: 6.00 Build 0)  -->
<svg version="1.1" id="Warstwa_1" xmlns="http://www.w3.org/2000/svg" xmlns:xlink="http://www.w3.org/1999/xlink" x="0px" y="0px"
	 viewBox="0 0 842 595" style="enable-background:new 0 0 842 595;" xml:space="preserve">
<style type="text/css">
	.st0{opacity:0.4;fill:url(#SVGID_1_);}
	.st1{fill:#2B2B2B;}
	.st2{fill:#271887;}
	.st3{fill:#FF0A04;}
	.st4{fill-rule:evenodd;clip-rule:evenodd;fill:#FF0A04;}
	.st5{fill-rule:evenodd;clip-rule:evenodd;fill:#271887;}
</style>
<linearGradient id="SVGID_1_" gradientUnits="userSpaceOnUse" x1="443.8501" y1="464.8907" x2="443.8501" y2="78.5111">
	<stop  offset="0" style="stop-color:#FFFFFF;stop-opacity:0"/>
	<stop  offset="0.496" style="stop-color:#FFFFFF"/>
	<stop  offset="1" style="stop-color:#FFFFFF;stop-opacity:0"/>
</linearGradient>
<rect x="-20.9" y="61.1" class="st0" width="929.5" height="444.7"/>
<path class="st1" d="M486.3,287.9c-0.5-1.8-1.7-3.2-3.4-4.2c-1.7-1-3.9-1.5-6.6-1.5c-3.6,0-6.5,0.8-8.5,2.5c-2.1,1.7-3.1,4-3.1,7
	c0,2.9,1,5.2,3,6.9c2,1.7,4.7,2.6,8.1,2.6c2.8,0,5.2-0.6,7.1-1.8c2-1.2,3.2-2.8,3.8-4.9h2.9c-0.6,2.7-2.2,4.9-4.6,6.5
	c-2.5,1.6-5.5,2.4-9.1,2.4c-4.2,0-7.6-1.1-10.2-3.2c-2.5-2.1-3.8-4.9-3.8-8.5c0-3.6,1.3-6.5,3.9-8.5c2.6-2.1,6.1-3.1,10.6-3.1
	c3.6,0,6.5,0.7,8.7,2.1c2.3,1.4,3.6,3.3,4.1,5.7H486.3L486.3,287.9z M495.4,293.3H511c-0.1-1.6-0.9-2.9-2.3-3.9
	c-1.4-1-3.2-1.5-5.4-1.5c-2.2,0-4,0.5-5.5,1.5C496.3,290.4,495.5,291.7,495.4,293.3L495.4,293.3z M513.2,297.6
	c-0.5,1.8-1.7,3.2-3.5,4.2c-1.8,1-4,1.6-6.5,1.6c-3.2,0-5.9-0.8-7.8-2.4c-2-1.6-3-3.7-3-6.3c0-2.6,1-4.7,3-6.3
	c2-1.6,4.6-2.4,7.8-2.4c3.2,0,5.8,0.8,7.8,2.4c2,1.6,2.9,3.7,2.9,6.3v0.5h-18.7c0.2,2,0.9,3.5,2.3,4.6c1.4,1.1,3.3,1.6,5.6,1.6
	c1.7,0,3.2-0.3,4.4-1c1.2-0.6,2.1-1.5,2.6-2.7H513.2L513.2,297.6z M518.2,302.8v-16.2h2.6v3c1-1.1,2.2-1.9,3.6-2.5
	c1.4-0.6,3-0.8,4.8-0.8c2.7,0,4.6,0.5,5.9,1.5c1.3,1,1.9,2.5,1.9,4.6v10.5h-2.6v-9.1c0-2.1-0.4-3.5-1.3-4.3
	c-0.8-0.8-2.3-1.2-4.3-1.2c-2.3,0-4.2,0.5-5.7,1.5c-1.5,1-2.2,2.3-2.2,3.9v9.2H518.2L518.2,302.8z M546.4,298.5c0,1.2,0.2,2,0.5,2.2
	c0.3,0.3,1,0.4,1.9,0.4c0.3,0,0.6,0,1-0.1c0.3,0,0.7-0.1,1.2-0.2v1.8c-0.6,0.1-1.2,0.2-1.7,0.3c-0.5,0.1-1.1,0.1-1.5,0.1
	c-1.4,0-2.4-0.3-3-1c-0.6-0.6-0.9-1.8-0.9-3.3v-10.4h-3.4v-1.8h3.4v-4.8h2.7v4.8h4.6v1.8h-4.6V298.5L546.4,298.5z M556.7,302.8H554
	v-16.2h2.7v2.7c0.6-1,1.4-1.8,2.5-2.4c1.1-0.6,2.3-0.9,3.6-0.9c0.4,0,0.9,0,1.3,0.1c0.4,0.1,0.9,0.2,1.3,0.3v2.1
	c-0.4-0.1-0.9-0.2-1.2-0.2c-0.4-0.1-0.8-0.1-1.1-0.1c-1.6,0-2.9,0.3-4,1c-1.1,0.7-1.9,1.7-2.4,3.1V302.8L556.7,302.8z M569.6,294.7
	c0,2,0.7,3.6,2.2,4.8c1.5,1.2,3.4,1.8,5.9,1.8c2.5,0,4.4-0.6,5.9-1.8c1.5-1.2,2.2-2.8,2.2-4.8c0-2-0.7-3.6-2.2-4.8
	c-1.5-1.2-3.4-1.8-5.9-1.8c-2.5,0-4.4,0.6-5.9,1.8C570.4,291,569.6,292.6,569.6,294.7L569.6,294.7z M566.9,294.7c0-2.6,1-4.7,3-6.3
	c2-1.6,4.6-2.4,7.8-2.4c3.2,0,5.8,0.8,7.8,2.4c2,1.6,3,3.7,3,6.3c0,2.6-1,4.7-3,6.3c-2,1.6-4.6,2.4-7.8,2.4c-3.2,0-5.8-0.8-7.8-2.4
	C567.9,299.3,566.9,297.2,566.9,294.7z"/>
<path class="st2" d="M353,261h7.9c4.5,0,7.8-1.1,9.9-3.2c2.1-2.1,3.2-5.5,3.2-10c0-4.6-1.1-7.9-3.2-10c-2.1-2.1-5.4-3.2-9.9-3.2H353
	V261L353,261z M338.4,270.6v-45.7h24.3c8.4,0,14.9,2,19.4,5.9c4.5,3.9,6.7,9.6,6.7,17c0,7.6-2.3,13.4-7,17.1
	c-4.6,3.8-11.7,5.7-21.1,5.7H338.4L338.4,270.6z M408.2,250.1l15.7,0c-0.1-2.2-0.8-3.9-2.2-5.1c-1.4-1.2-3.3-1.8-5.7-1.8
	c-2.3,0-4.1,0.6-5.4,1.8C409.3,246.2,408.5,247.9,408.2,250.1L408.2,250.1z M423.2,260h13.2c-1.2,3.7-3.7,6.6-7.3,8.6
	c-3.6,2-8.1,3-13.5,3c-6.5,0-11.7-1.6-15.5-4.8c-3.8-3.2-5.7-7.5-5.7-13c0-5.6,1.9-10,5.7-13.3c3.8-3.3,9-4.9,15.4-4.9
	c6.7,0,11.9,1.7,15.7,5c3.8,3.3,5.7,7.9,5.7,13.7c0,0.5,0,1,0,1.2c0,0.3,0,0.5-0.1,0.7h-28.4c0,2.4,0.6,4.2,1.9,5.5
	c1.3,1.3,3.2,1.9,5.6,1.9c1.8,0,3.3-0.3,4.5-0.9C421.9,262.1,422.7,261.2,423.2,260L423.2,260z M483,243.5v-6.7h5.7v-9.6h13.8v9.6h7
	v6.7h-7v14.6c0,2.2,0.4,3.7,1.1,4.4c0.7,0.7,2.1,1.1,4.1,1.1c0.4,0,0.8,0,1,0c0.3,0,0.5,0,0.7-0.1v7.1c-1.4,0.2-2.9,0.4-4.2,0.5
	c-1.4,0.1-2.7,0.2-4,0.2c-4.8,0-8-0.9-9.8-2.8c-1.8-1.9-2.6-5.9-2.6-12v-13.1H483L483,243.5z M515.8,270.6v-33.7H529v5.9
	c1.5-2.3,3.3-4,5.5-5.1c2.2-1.1,5-1.6,8.4-1.7V247c-0.6-0.1-1.2-0.1-1.8-0.1c-0.6,0-1.1,0-1.7,0c-2.1,0-3.9,0.3-5.2,0.8
	c-1.4,0.5-2.5,1.3-3.3,2.3c-0.5,0.7-0.9,1.7-1.1,3c-0.2,1.3-0.3,3.4-0.3,6.4v11.3H515.8L515.8,270.6z M573.1,254.7
	c-1.1,0.5-2.9,1-5.6,1.5c-1.3,0.2-2.3,0.4-2.9,0.5c-1.6,0.4-2.8,0.8-3.5,1.4c-0.7,0.6-1,1.4-1,2.3c0,1.2,0.5,2.2,1.4,2.9
	c0.9,0.7,2.2,1.1,3.7,1.1c2.3,0,4.3-0.5,5.7-1.6c1.5-1.1,2.2-2.5,2.2-4.3V254.7L573.1,254.7z M588.3,270.6h-14
	c-0.2-0.5-0.3-1.1-0.4-1.7c-0.1-0.6-0.2-1.2-0.3-1.8c-1.9,1.6-4,2.7-6.2,3.4c-2.2,0.8-4.6,1.1-7.2,1.1c-4,0-7.2-0.9-9.6-2.7
	c-2.4-1.8-3.5-4.2-3.5-7.2c0-2.8,0.9-5.1,2.8-6.8c1.8-1.8,4.6-3,8.4-3.7c2.1-0.4,4.7-0.8,7.9-1.2c4.7-0.6,7.1-1.5,7.1-2.7v-0.8
	c0-1-0.5-1.7-1.4-2.2c-0.9-0.5-2.3-0.8-4.1-0.8c-2,0-3.5,0.3-4.7,1c-1.1,0.6-1.9,1.6-2.2,2.8h-12.7c0.7-3.8,2.6-6.6,5.9-8.5
	c3.3-1.9,7.9-2.8,13.9-2.8c3.7,0,6.9,0.4,9.5,1.1c2.6,0.7,4.6,1.8,6,3.3c1,1.1,1.7,2.3,2.1,3.8c0.4,1.5,0.6,3.8,0.6,7V264
	c0,1.5,0.2,2.7,0.5,3.6c0.3,0.9,0.9,1.5,1.6,1.7V270.6z"/>
<polygon class="st3" points="438.4,270.6 453.2,253 439,236.9 455.2,236.9 461,244.9 467,236.9 483,236.9 468.8,253 483.7,270.6 
	467.6,270.6 460.9,261.3 454.4,270.6 "/>
<rect x="276.1" y="239.8" class="st4" width="17.2" height="15.7"/>
<polygon class="st5" points="312.9,231.1 276.1,231.1 276.1,239.8 303.3,239.8 303.3,255.4 276.1,255.4 276.1,263.4 312.9,263.4 "/>
<polygon class="st5" points="328.7,217.8 276.1,217.8 276.1,225.4 319,225.4 319,269.1 276.1,269.1 276.1,276.9 328.7,276.9 "/>
</svg>
