<?xml version="1.0" encoding="utf-8"?>
<!-- Generator: Adobe Illustrator 21.0.2, SVG Export Plug-In . SVG Version: 6.00 Build 0)  -->
<svg version="1.1" id="Warstwa_1" xmlns="http://www.w3.org/2000/svg" xmlns:xlink="http://www.w3.org/1999/xlink" x="0px" y="0px"
	 viewBox="0 0 559.4 595" style="enable-background:new 0 0 559.4 595;" xml:space="preserve">
<style type="text/css">
	.st0{fill:#271887;}
	.st1{fill:#FF0A04;}
	.st2{fill-rule:evenodd;clip-rule:evenodd;fill:#FF0A04;}
	.st3{fill-rule:evenodd;clip-rule:evenodd;fill:#271887;}
</style>
<path class="st0" d="M680.1,406h62.7c35.6,0,61.7-8.5,78.3-25.3c16.6-16.8,24.9-43.2,24.9-79.2c0-36.2-8.3-62.6-24.9-79.3
	c-16.6-16.7-42.7-25.1-78.3-25.1h-62.7V406L680.1,406z M564.4,481.7V120.6h192.2c66.5,0,117.6,15.6,153.2,46.7
	c35.6,31.1,53.3,75.9,53.3,134.2c0,60.3-18.3,105.4-55.2,135.3c-36.7,29.9-92.2,44.9-166.3,44.9H564.4L564.4,481.7z M1116.4,320.1
	l123.8-0.3c-0.4-17.2-6.1-30.5-17-40.2c-10.8-9.6-25.8-14.5-44.7-14.5c-17.9,0-32.2,4.8-43,14.2
	C1124.7,288.9,1118.4,302.5,1116.4,320.1L1116.4,320.1z M1234.6,397.9h104.5c-9.7,29.3-29,51.9-57.6,68c-28.7,16-64.1,24-106.5,24
	c-51.5,0-92.3-12.6-122.2-37.7c-29.9-25.1-44.9-59.3-44.9-102.6c0-44.1,15.1-79.1,45.2-104.9c30.1-25.7,70.7-38.6,121.9-38.6
	c52.8,0,94.2,13.1,124.3,39.2c30.1,26.1,45.3,62.3,45.3,108.3c0,4.3,0,7.5-0.1,9.7c-0.1,2.3-0.3,4.1-0.5,5.8h-224.6
	c0,18.8,5,33.1,15.1,43.1c10.1,9.9,24.9,14.8,44.5,14.8c14.4,0,26.4-2.4,35.8-7.4C1224.2,414.8,1230.8,407.5,1234.6,397.9
	L1234.6,397.9z M1706.8,267.9v-52.7h44.6v-75.5h108.8v75.5h55.6v52.7h-55.6v115.5c0,17.7,2.8,29.3,8.5,35c5.7,5.8,16.4,8.6,32.1,8.6
	c3.4,0,6.2,0,8-0.1c2-0.1,3.9-0.3,5.6-0.4v55.7c-11.4,1.8-22.5,3.2-33.4,4.1c-10.9,1-21.5,1.5-31.7,1.5c-37.6,0-63.4-7.4-77.3-22.2
	c-13.9-14.8-20.7-46.4-20.7-94.6V267.9H1706.8L1706.8,267.9z M1965.8,481.7V215.2h104.5v46.6c11.6-18.3,26.1-31.7,43.4-40.1
	c17.3-8.5,39.3-12.8,66-13.1v86.4c-4.7-0.5-9.3-0.9-13.9-1.2c-4.6-0.2-9-0.3-13-0.3c-16.7,0-30.4,2-41.4,6
	c-10.9,4-19.6,10.1-26.2,18.5c-4.1,5.5-6.9,13.6-8.7,23.9c-1.8,10.4-2.6,27.1-2.6,50.4v89.5H1965.8L1965.8,481.7z M2418.6,356.2
	c-8.3,4.2-23,8.1-44,11.7c-10.2,1.7-17.9,3-23.3,4.2c-13,2.9-22.3,6.7-27.6,11.3c-5.4,4.6-8.1,10.7-8.1,18.4
	c0,9.5,3.6,17.2,11.1,22.9c7.3,5.8,17,8.7,29,8.7c18.6,0,33.7-4.3,45.4-12.9c11.8-8.5,17.6-19.8,17.6-33.7V356.2L2418.6,356.2z
	 M2538.3,481.7h-110.8c-1.3-4.3-2.3-8.6-3.2-13.2c-0.9-4.6-1.8-9.3-2.6-14.2c-15.2,12.3-31.5,21.3-48.7,27.2
	c-17.2,5.9-36.1,8.9-56.7,8.9c-31.9,0-57.2-7.1-75.9-21.3c-18.7-14.1-27.9-33.2-27.9-57.2c0-22.1,7.3-40,21.8-53.8
	c14.6-13.9,36.6-23.5,66.2-29.1c16.3-2.9,36.9-6.1,62-9.5c37.4-4.9,56.2-12.1,56.2-21.6v-6.4c0-7.7-3.6-13.6-10.8-17.5
	c-7.2-4-17.9-6-32.2-6c-15.5,0-27.7,2.5-36.8,7.6c-9.1,5-14.8,12.5-17,22.3h-100.2c5.3-30,20.9-52.5,46.6-67.1
	c25.8-14.7,62.3-22.1,109.8-22.1c29.5,0,54.4,2.8,74.7,8.6c20.3,5.7,36.2,14.3,47.5,25.9c7.9,8.4,13.5,18.2,16.8,29.8
	c3.2,11.5,4.9,30,4.9,55.5v101.1c0,12.1,1.4,21.6,4.2,28.5c2.7,6.9,6.8,11.5,12.3,13.6V481.7z"/>
<polygon class="st1" points="1354.6,481.7 1471.6,342.7 1359.2,215.2 1487.5,215.2 1533,278.9 1580.1,215.2 1706.8,215.2 
	1594.4,342.7 1712.1,481.7 1584.9,481.7 1532.4,408.4 1481.1,481.7 "/>
<rect x="72.6" y="238.1" class="st2" width="135.9" height="123.6"/>
<polygon class="st3" points="363.6,169.8 72.6,169.8 72.6,238.1 287.6,238.1 287.6,361.7 72.6,361.7 72.6,424.7 363.6,424.7 "/>
<polygon class="st3" points="488,64.6 72.6,64.6 72.6,124.4 411.2,124.4 411.2,470 72.6,470 72.6,531.4 488,531.4 "/>
</svg>
