<?xml version="1.0" encoding="utf-8"?>
<!-- Generator: Adobe Illustrator 21.0.2, SVG Export Plug-In . SVG Version: 6.00 Build 0)  -->
<svg version="1.1" id="Warstwa_1" xmlns="http://www.w3.org/2000/svg" xmlns:xlink="http://www.w3.org/1999/xlink" x="0px" y="0px"
	 viewBox="0 0 645.7 216.4" style="enable-background:new 0 0 645.7 216.4;" xml:space="preserve">
<style type="text/css">
	.st0{fill:#5224AA;}
	.st1{fill:#FF0A04;}
</style>
<path class="st0" d="M35,133.6h19c10.8,0,18.7-2.6,23.7-7.6c5-5.1,7.5-13.1,7.5-24s-2.5-18.9-7.5-24S64.8,70.4,54,70.4H35V133.6
	L35,133.6z M0,156.5V47.2h58.2c20.1,0,35.6,4.7,46.4,14.1s16.1,23,16.1,40.6c0,18.3-5.6,31.9-16.7,41c-11.1,9-27.9,13.6-50.3,13.6H0
	L0,156.5z M167.1,107.6l37.5-0.1c-0.1-5.2-1.8-9.2-5.1-12.2c-3.3-2.9-7.8-4.4-13.5-4.4c-5.4,0-9.8,1.4-13,4.3
	C169.6,98.2,167.7,102.3,167.1,107.6L167.1,107.6z M202.8,131.2h31.6c-2.9,8.9-8.8,15.7-17.4,20.6c-8.7,4.8-19.4,7.3-32.2,7.3
	c-15.6,0-27.9-3.8-37-11.4c-9.1-7.6-13.6-17.9-13.6-31.1c0-13.3,4.6-23.9,13.7-31.7c9.1-7.8,21.4-11.7,36.9-11.7
	c16,0,28.5,4,37.6,11.9s13.7,18.8,13.7,32.8c0,1.3,0,2.3,0,2.9c0,0.7-0.1,1.2-0.2,1.7h-68c0,5.7,1.5,10,4.6,13S180,140,186,140
	c4.4,0,8-0.7,10.8-2.2C199.7,136.3,201.7,134.1,202.8,131.2L202.8,131.2z M345.8,91.8v-16h13.5V53h32.9v22.8H409v16h-16.8v35
	c0,5.3,0.9,8.9,2.6,10.6c1.7,1.7,5,2.6,9.7,2.6c1,0,1.9,0,2.4,0c0.6,0,1.2-0.1,1.7-0.1v16.9c-3.4,0.5-6.8,1-10.1,1.2
	c-3.3,0.3-6.5,0.5-9.6,0.5c-11.4,0-19.2-2.2-23.4-6.7c-4.2-4.5-6.3-14-6.3-28.6V91.8H345.8L345.8,91.8z M424.2,156.5V75.9h31.6V90
	c3.5-5.5,7.9-9.6,13.1-12.1c5.2-2.6,11.9-3.9,20-4V100c-1.4-0.2-2.8-0.3-4.2-0.4c-1.4-0.1-2.7-0.1-3.9-0.1c-5,0-9.2,0.6-12.5,1.8
	c-3.3,1.2-5.9,3.1-7.9,5.6c-1.2,1.7-2.1,4.1-2.6,7.2s-0.8,8.2-0.8,15.2v27.1L424.2,156.5L424.2,156.5z M561.2,118.5
	c-2.5,1.3-7,2.5-13.3,3.5c-3.1,0.5-5.4,0.9-7,1.3c-3.9,0.9-6.8,2-8.4,3.4c-1.6,1.4-2.5,3.2-2.5,5.6c0,2.9,1.1,5.2,3.3,6.9
	s5.1,2.6,8.8,2.6c5.6,0,10.2-1.3,13.7-3.9c3.6-2.6,5.3-6,5.3-10.2v-9.2H561.2z M597.4,156.5h-33.5c-0.4-1.3-0.7-2.6-1-4
	s-0.5-2.8-0.8-4.3c-4.6,3.7-9.5,6.5-14.7,8.2c-5.2,1.8-10.9,2.7-17.2,2.7c-9.7,0-17.3-2.2-23-6.4c-5.6-4.3-8.5-10.1-8.5-17.3
	c0-6.7,2.2-12.1,6.6-16.3c4.4-4.2,11.1-7.1,20-8.8c4.9-0.9,11.2-1.8,18.8-2.9c11.3-1.5,17-3.7,17-6.5V99c0-2.3-1.1-4.1-3.3-5.3
	c-2.2-1.2-5.4-1.8-9.8-1.8c-4.7,0-8.4,0.8-11.1,2.3c-2.7,1.5-4.5,3.8-5.1,6.7h-30.3c1.6-9.1,6.3-15.9,14.1-20.3
	c7.8-4.5,18.9-6.7,33.2-6.7c8.9,0,16.5,0.9,22.6,2.6c6.2,1.7,11,4.3,14.4,7.9c2.4,2.5,4.1,5.5,5.1,9s1.5,9.1,1.5,16.8v30.6
	c0,3.7,0.4,6.5,1.3,8.6c0.8,2.1,2.1,3.5,3.7,4.1L597.4,156.5L597.4,156.5z"/>
<polygon class="st1" points="239.2,156.5 274.6,114.5 240.6,75.9 279.4,75.9 293.2,95.2 307.4,75.9 345.8,75.9 311.7,114.5 
	347.3,156.5 308.9,156.5 293,134.3 277.4,156.5 "/>
</svg>
