<?xml version="1.0" encoding="utf-8"?>
<!-- Generator: Adobe Illustrator 21.0.2, SVG Export Plug-In . SVG Version: 6.00 Build 0)  -->
<svg version="1.1" id="Warstwa_1" xmlns="http://www.w3.org/2000/svg" xmlns:xlink="http://www.w3.org/1999/xlink" x="0px" y="0px"
	 viewBox="0 0 403 87.5" style="enable-background:new 0 0 403 87.5;" xml:space="preserve">
<style type="text/css">
	.st0{fill:#4F238D;}
	.st1{fill:#FF0A04;}
	.st2{fill-rule:evenodd;clip-rule:evenodd;fill:#FF0A04;}
	.st3{fill-rule:evenodd;clip-rule:evenodd;fill:#4F238D;}
</style>
<path class="st0" d="M121.4,51.9h7.9c4.5,0,7.8-1.1,9.9-3.2c2.1-2.1,3.2-5.5,3.2-10c0-4.6-1.1-7.9-3.2-10c-2.1-2.1-5.4-3.2-9.9-3.2
	h-7.9V51.9L121.4,51.9z M106.8,61.5V15.7h24.3c8.4,0,14.9,2,19.4,5.9c4.5,3.9,6.7,9.6,6.7,17c0,7.6-2.3,13.4-7,17.1
	c-4.6,3.8-11.7,5.7-21.1,5.7H106.8L106.8,61.5z M176.7,41l15.7,0c-0.1-2.2-0.8-3.9-2.2-5.1c-1.4-1.2-3.3-1.8-5.7-1.8
	c-2.3,0-4.1,0.6-5.4,1.8C177.7,37.1,176.9,38.8,176.7,41L176.7,41z M191.7,50.9h13.2c-1.2,3.7-3.7,6.6-7.3,8.6c-3.6,2-8.1,3-13.5,3
	c-6.5,0-11.7-1.6-15.5-4.8c-3.8-3.2-5.7-7.5-5.7-13c0-5.6,1.9-10,5.7-13.3c3.8-3.3,9-4.9,15.4-4.9c6.7,0,11.9,1.7,15.7,5
	c3.8,3.3,5.7,7.9,5.7,13.7c0,0.5,0,1,0,1.2c0,0.3,0,0.5-0.1,0.7h-28.4c0,2.4,0.6,4.2,1.9,5.5c1.3,1.3,3.2,1.9,5.6,1.9
	c1.8,0,3.3-0.3,4.5-0.9C190.3,53,191.2,52.1,191.7,50.9L191.7,50.9z M251.4,34.4v-6.7h5.7v-9.6h13.8v9.6h7v6.7h-7V49
	c0,2.2,0.4,3.7,1.1,4.4c0.7,0.7,2.1,1.1,4.1,1.1c0.4,0,0.8,0,1,0c0.3,0,0.5,0,0.7-0.1v7.1c-1.4,0.2-2.9,0.4-4.2,0.5
	c-1.4,0.1-2.7,0.2-4,0.2c-4.8,0-8-0.9-9.8-2.8c-1.8-1.9-2.6-5.9-2.6-12V34.4H251.4L251.4,34.4z M284.2,61.5V27.7h13.2v5.9
	c1.5-2.3,3.3-4,5.5-5.1c2.2-1.1,5-1.6,8.4-1.7v10.9c-0.6-0.1-1.2-0.1-1.8-0.1c-0.6,0-1.1,0-1.7,0c-2.1,0-3.9,0.3-5.2,0.8
	c-1.4,0.5-2.5,1.3-3.3,2.3c-0.5,0.7-0.9,1.7-1.1,3c-0.2,1.3-0.3,3.4-0.3,6.4v11.3H284.2L284.2,61.5z M341.6,45.6
	c-1.1,0.5-2.9,1-5.6,1.5c-1.3,0.2-2.3,0.4-2.9,0.5c-1.6,0.4-2.8,0.8-3.5,1.4c-0.7,0.6-1,1.4-1,2.3c0,1.2,0.5,2.2,1.4,2.9
	c0.9,0.7,2.2,1.1,3.7,1.1c2.3,0,4.3-0.5,5.7-1.6c1.5-1.1,2.2-2.5,2.2-4.3V45.6L341.6,45.6z M356.7,61.5h-14
	c-0.2-0.5-0.3-1.1-0.4-1.7c-0.1-0.6-0.2-1.2-0.3-1.8c-1.9,1.6-4,2.7-6.2,3.4c-2.2,0.8-4.6,1.1-7.2,1.1c-4,0-7.2-0.9-9.6-2.7
	c-2.4-1.8-3.5-4.2-3.5-7.2c0-2.8,0.9-5.1,2.8-6.8c1.8-1.8,4.6-3,8.4-3.7c2.1-0.4,4.7-0.8,7.9-1.2c4.7-0.6,7.1-1.5,7.1-2.7v-0.8
	c0-1-0.5-1.7-1.4-2.2c-0.9-0.5-2.3-0.8-4.1-0.8c-2,0-3.5,0.3-4.7,1c-1.1,0.6-1.9,1.6-2.2,2.8h-12.7c0.7-3.8,2.6-6.6,5.9-8.5
	c3.3-1.9,7.9-2.8,13.9-2.8c3.7,0,6.9,0.4,9.5,1.1c2.6,0.7,4.6,1.8,6,3.3c1,1.1,1.7,2.3,2.1,3.8c0.4,1.5,0.6,3.8,0.6,7v12.8
	c0,1.5,0.2,2.7,0.5,3.6c0.3,0.9,0.9,1.5,1.6,1.7V61.5z"/>
<polygon class="st1" points="206.9,61.5 221.7,43.9 207.4,27.7 223.7,27.7 229.4,35.8 235.4,27.7 251.4,27.7 237.2,43.9 252.1,61.5 
	236,61.5 229.4,52.2 222.9,61.5 "/>
<rect x="44.5" y="30.6" class="st2" width="17.2" height="15.7"/>
<polygon class="st3" points="81.4,22 44.5,22 44.5,30.6 71.7,30.6 71.7,46.3 44.5,46.3 44.5,54.3 81.4,54.3 "/>
<polygon class="st3" points="97.1,8.7 44.5,8.7 44.5,16.2 87.4,16.2 87.4,60 44.5,60 44.5,67.8 97.1,67.8 "/>
</svg>
