<?xml version="1.0" encoding="utf-8"?>
<!-- Generator: Adobe Illustrator 21.0.2, SVG Export Plug-In . SVG Version: 6.00 Build 0)  -->
<svg version="1.1" id="Warstwa_1" xmlns="http://www.w3.org/2000/svg" xmlns:xlink="http://www.w3.org/1999/xlink" x="0px" y="0px"
	 viewBox="0 0 842 595" style="enable-background:new 0 0 842 595;" xml:space="preserve">
<style type="text/css">
	.st0{opacity:0.24;fill:url(#SVGID_1_);}
	.st1{fill:#A3A3A3;}
	.st2{fill:#271887;}
	.st3{fill:#FF0A04;}
	.st4{fill-rule:evenodd;clip-rule:evenodd;fill:#FF0A04;}
	.st5{fill-rule:evenodd;clip-rule:evenodd;fill:#271887;}
</style>
<linearGradient id="SVGID_1_" gradientUnits="userSpaceOnUse" x1="448.5" y1="515.5032" x2="448.5" y2="167.5477">
	<stop  offset="0" style="stop-color:#FFFFFF;stop-opacity:0"/>
	<stop  offset="0.496" style="stop-color:#FFFFFF"/>
	<stop  offset="1" style="stop-color:#FFFFFF;stop-opacity:0"/>
</linearGradient>
<rect x="-70.5" y="151.9" class="st0" width="1038" height="400.5"/>
<path class="st1" d="M550,362.7c-1.3-4.3-4-7.7-8.2-10c-4.2-2.3-9.4-3.5-15.8-3.5c-8.6,0-15.4,2-20.4,6.1c-5,4-7.4,9.6-7.4,16.6
	c0,6.9,2.4,12.4,7.2,16.5c4.8,4.1,11.3,6.2,19.3,6.2c6.7,0,12.3-1.5,17-4.3c4.7-2.9,7.7-6.8,9-11.7h7c-1.5,6.5-5.2,11.7-11.1,15.5
	c-5.9,3.8-13.1,5.7-21.7,5.7c-10.1,0-18.2-2.5-24.3-7.6c-6.1-5.1-9.1-11.8-9.1-20.2c0-8.7,3.1-15.5,9.2-20.4
	c6.2-5,14.6-7.4,25.4-7.4c8.5,0,15.5,1.7,20.8,5c5.4,3.3,8.7,7.9,9.7,13.7H550L550,362.7z M571.6,375.7h37.3c-0.4-3.9-2.2-7-5.6-9.3
	c-3.4-2.3-7.7-3.5-12.9-3.5c-5.3,0-9.6,1.2-13,3.5C573.9,368.7,572,371.8,571.6,375.7L571.6,375.7z M614.3,385.9
	c-1.3,4.2-4.1,7.6-8.4,10c-4.3,2.5-9.5,3.7-15.5,3.7c-7.7,0-14-1.9-18.7-5.7c-4.7-3.8-7.1-8.8-7.1-15.1c0-6.2,2.4-11.2,7.1-15
	c4.7-3.8,11-5.7,18.7-5.7c7.8,0,14,1.9,18.7,5.7c4.7,3.8,7,8.8,7,15v1.2h-44.7c0.4,4.7,2.2,8.3,5.5,10.9c3.3,2.6,7.8,3.8,13.5,3.8
	c4.1,0,7.7-0.8,10.6-2.3c2.9-1.5,5-3.7,6.2-6.5H614.3L614.3,385.9z M626.3,398.2v-38.8h6.1v7.2c2.3-2.6,5.2-4.6,8.6-5.9
	c3.4-1.4,7.3-2,11.6-2c6.4,0,11.1,1.2,14.1,3.5c3,2.3,4.5,6,4.5,11v25.1h-6.3v-21.8c0-4.9-1-8.4-3-10.3c-2-1.9-5.5-2.9-10.4-2.9
	c-5.5,0-10.1,1.2-13.6,3.6c-3.6,2.4-5.4,5.5-5.4,9.3v22.1H626.3L626.3,398.2z M693.6,387.9c0,2.9,0.4,4.7,1.2,5.3
	c0.8,0.7,2.3,1,4.5,1c0.7,0,1.5,0,2.3-0.1c0.8-0.1,1.8-0.2,2.8-0.5v4.4c-1.5,0.3-2.9,0.5-4.2,0.6c-1.3,0.1-2.5,0.2-3.7,0.2
	c-3.4,0-5.8-0.8-7.2-2.3c-1.4-1.5-2.2-4.2-2.2-8v-24.9H679v-4.2h8.2v-11.4h6.4v11.4h11v4.2h-11V387.9L693.6,387.9z M718.2,398.2
	h-6.4v-38.8h6.4v6.4c1.4-2.5,3.4-4.4,5.9-5.8c2.6-1.4,5.4-2.1,8.6-2.1c1,0,2.1,0.1,3.1,0.3c1.1,0.2,2.1,0.4,3.2,0.8v4.9
	c-1.1-0.3-2.1-0.5-3-0.6c-0.9-0.1-1.8-0.2-2.7-0.2c-3.8,0-6.9,0.8-9.4,2.5c-2.5,1.6-4.5,4.1-5.8,7.4V398.2L718.2,398.2z
	 M749.1,378.8c0,4.8,1.7,8.7,5.3,11.5c3.5,2.9,8.2,4.3,14.1,4.3c5.9,0,10.6-1.4,14.1-4.3c3.5-2.9,5.3-6.7,5.3-11.5
	c0-4.8-1.7-8.7-5.3-11.5c-3.5-2.9-8.2-4.3-14.1-4.3c-5.9,0-10.6,1.4-14.1,4.3C750.9,370.2,749.1,374,749.1,378.8L749.1,378.8z
	 M742.7,378.8c0-6.2,2.4-11.2,7.1-15c4.7-3.8,11-5.7,18.7-5.7c7.7,0,13.9,1.9,18.7,5.8c4.8,3.8,7.2,8.8,7.2,15
	c0,6.2-2.4,11.2-7.2,15c-4.8,3.8-11,5.8-18.7,5.8c-7.7,0-14-1.9-18.7-5.8C745,390,742.7,385,742.7,378.8z"/>
<path class="st2" d="M231.4,298.4h19c10.8,0,18.7-2.6,23.7-7.6c5-5.1,7.5-13.1,7.5-24c0-10.9-2.5-18.9-7.5-24
	c-5-5.1-12.9-7.6-23.7-7.6h-19V298.4L231.4,298.4z M196.3,321.3V212.1h58.2c20.1,0,35.6,4.7,46.4,14.1c10.8,9.4,16.1,23,16.1,40.6
	c0,18.3-5.6,31.9-16.7,41c-11.1,9-27.9,13.6-50.3,13.6H196.3L196.3,321.3z M363.4,272.4l37.5-0.1c-0.1-5.2-1.8-9.2-5.1-12.2
	c-3.3-2.9-7.8-4.4-13.5-4.4c-5.4,0-9.8,1.4-13,4.3C365.9,263,364,267.1,363.4,272.4L363.4,272.4z M399.2,296h31.6
	c-2.9,8.9-8.8,15.7-17.4,20.6c-8.7,4.8-19.4,7.3-32.2,7.3c-15.6,0-27.9-3.8-37-11.4c-9.1-7.6-13.6-17.9-13.6-31.1
	c0-13.3,4.6-23.9,13.7-31.7c9.1-7.8,21.4-11.7,36.9-11.7c16,0,28.5,4,37.6,11.9c9.1,7.9,13.7,18.8,13.7,32.8c0,1.3,0,2.3,0,2.9
	c0,0.7-0.1,1.2-0.2,1.7h-68c0,5.7,1.5,10,4.6,13c3.1,3,7.5,4.5,13.5,4.5c4.4,0,8-0.7,10.8-2.2C396,301.1,398,298.9,399.2,296
	L399.2,296z M542.1,256.6v-16h13.5v-22.8h32.9v22.8h16.8v16h-16.8v35c0,5.3,0.9,8.9,2.6,10.6c1.7,1.7,5,2.6,9.7,2.6c1,0,1.9,0,2.4,0
	c0.6,0,1.2-0.1,1.7-0.1v16.9c-3.4,0.5-6.8,1-10.1,1.2c-3.3,0.3-6.5,0.5-9.6,0.5c-11.4,0-19.2-2.2-23.4-6.7c-4.2-4.5-6.3-14-6.3-28.6
	v-31.2H542.1L542.1,256.6z M620.5,321.3v-80.7h31.6v14.1c3.5-5.5,7.9-9.6,13.1-12.1c5.2-2.6,11.9-3.9,20-4v26.1
	c-1.4-0.2-2.8-0.3-4.2-0.4c-1.4-0.1-2.7-0.1-3.9-0.1c-5,0-9.2,0.6-12.5,1.8c-3.3,1.2-5.9,3.1-7.9,5.6c-1.2,1.7-2.1,4.1-2.6,7.2
	c-0.5,3.1-0.8,8.2-0.8,15.2v27.1H620.5L620.5,321.3z M757.5,283.4c-2.5,1.3-7,2.5-13.3,3.5c-3.1,0.5-5.4,0.9-7,1.3
	c-3.9,0.9-6.8,2-8.4,3.4c-1.6,1.4-2.5,3.2-2.5,5.6c0,2.9,1.1,5.2,3.3,6.9c2.2,1.7,5.1,2.6,8.8,2.6c5.6,0,10.2-1.3,13.7-3.9
	c3.6-2.6,5.3-6,5.3-10.2V283.4L757.5,283.4z M793.7,321.3h-33.5c-0.4-1.3-0.7-2.6-1-4c-0.3-1.4-0.5-2.8-0.8-4.3
	c-4.6,3.7-9.5,6.5-14.7,8.2c-5.2,1.8-10.9,2.7-17.2,2.7c-9.7,0-17.3-2.2-23-6.4c-5.6-4.3-8.5-10.1-8.5-17.3c0-6.7,2.2-12.1,6.6-16.3
	c4.4-4.2,11.1-7.1,20-8.8c4.9-0.9,11.2-1.8,18.8-2.9c11.3-1.5,17-3.7,17-6.5v-1.9c0-2.3-1.1-4.1-3.3-5.3c-2.2-1.2-5.4-1.8-9.8-1.8
	c-4.7,0-8.4,0.8-11.1,2.3c-2.7,1.5-4.5,3.8-5.1,6.7h-30.3c1.6-9.1,6.3-15.9,14.1-20.3c7.8-4.5,18.9-6.7,33.2-6.7
	c8.9,0,16.5,0.9,22.6,2.6c6.2,1.7,11,4.3,14.4,7.9c2.4,2.5,4.1,5.5,5.1,9c1,3.5,1.5,9.1,1.5,16.8v30.6c0,3.7,0.4,6.5,1.3,8.6
	c0.8,2.1,2.1,3.5,3.7,4.1V321.3z"/>
<polygon class="st3" points="435.5,321.3 470.9,279.3 436.9,240.7 475.7,240.7 489.5,260 503.7,240.7 542.1,240.7 508.1,279.3 
	543.7,321.3 505.2,321.3 489.3,299.2 473.8,321.3 "/>
<rect x="47.5" y="247.6" class="st4" width="41.1" height="37.4"/>
<polygon class="st5" points="135.6,226.9 47.5,226.9 47.5,247.6 112.6,247.6 112.6,285 47.5,285 47.5,304.1 135.6,304.1 "/>
<polygon class="st5" points="173.2,195.1 47.5,195.1 47.5,213.2 150,213.2 150,317.8 47.5,317.8 47.5,336.4 173.2,336.4 "/>
</svg>
